<svg width="128" height="128" viewBox="0 0 128 128" fill="none" xmlns="http://www.w3.org/2000/svg">
  <rect width="128" height="128" rx="64" fill="#00A651"/>
  <path d="M64 29.8667C45.4933 29.8667 30.4 44.96 30.4 63.4667C30.4 81.9733 45.4933 97.0667 64 97.0667C82.5067 97.0667 97.6 81.9733 97.6 63.4667C97.6 44.96 82.5067 29.8667 64 29.8667ZM64 83.2C53.2267 83.2 44.2667 74.24 44.2667 63.4667C44.2667 52.6933 53.2267 43.7333 64 43.7333C74.7733 43.7333 83.7333 52.6933 83.7333 63.4667C83.7333 74.24 74.7733 83.2 64 83.2Z" fill="white"/>
  <path d="M64 51.2C57.3726 51.2 52 56.5726 52 63.2C52 69.8274 57.3726 75.2 64 75.2C70.6274 75.2 76 69.8274 76 63.2C76 56.5726 70.6274 51.2 64 51.2Z" fill="#F7941D"/>
</svg>